<?xml version="1.0" encoding="UTF-8" standalone="no"?><svg xmlns="http://www.w3.org/2000/svg" xmlns:xlink="http://www.w3.org/1999/xlink" contentScriptType="application/ecmascript" contentStyleType="text/css" height="548px" preserveAspectRatio="none" style="width:1551px;height:548px;" version="1.1" viewBox="0 0 1551 548" width="1551px" zoomAndPan="magnify"><defs><filter height="300%" id="f1h8ecjbcv730y" width="300%" x="-1" y="-1"><feGaussianBlur result="blurOut" stdDeviation="2.0"/><feColorMatrix in="blurOut" result="blurOut2" type="matrix" values="0 0 0 0 0 0 0 0 0 0 0 0 0 0 0 0 0 0 .4 0"/><feOffset dx="4.0" dy="4.0" in="blurOut2" result="blurOut3"/><feBlend in="SourceGraphic" in2="blurOut3" mode="normal"/></filter></defs><g><!--MD5=[d3233576720ea02f117c182edecf3358]
class ProductKeys--><rect codeLine="7" fill="#FEFECE" filter="url(#f1h8ecjbcv730y)" height="73.6094" id="ProductKeys" style="stroke: #A80036; stroke-width: 1.5;" width="219" x="758.5" y="208.5"/><ellipse cx="825.25" cy="224.5" fill="#ADD1B2" rx="11" ry="11" style="stroke: #A80036; stroke-width: 1.0;"/><path d="M828.2188,230.1406 Q827.6406,230.4375 827,230.5781 Q826.3594,230.7344 825.6563,230.7344 Q823.1563,230.7344 821.8281,229.0938 Q820.5156,227.4375 820.5156,224.3125 Q820.5156,221.1875 821.8281,219.5313 Q823.1563,217.875 825.6563,217.875 Q826.3594,217.875 827,218.0313 Q827.6563,218.1875 828.2188,218.4844 L828.2188,221.2031 Q827.5938,220.625 827,220.3594 Q826.4063,220.0781 825.7813,220.0781 Q824.4375,220.0781 823.75,221.1563 Q823.0625,222.2188 823.0625,224.3125 Q823.0625,226.4063 823.75,227.4844 Q824.4375,228.5469 825.7813,228.5469 Q826.4063,228.5469 827,228.2813 Q827.5938,228 828.2188,227.4219 L828.2188,230.1406 Z "/><text fill="#000000" font-family="sans-serif" font-size="12" lengthAdjust="spacingAndGlyphs" textLength="77" x="845.75" y="228.6543">ProductKeys</text><line style="stroke: #A80036; stroke-width: 1.5;" x1="759.5" x2="976.5" y1="240.5" y2="240.5"/><text fill="#000000" font-family="sans-serif" font-size="11" lengthAdjust="spacingAndGlyphs" textLength="109" x="764.5" y="254.7104">ProductType[] Keys</text><line style="stroke: #A80036; stroke-width: 1.0;" x1="759.5" x2="976.5" y1="261.3047" y2="261.3047"/><ellipse cx="769.5" cy="272.3047" fill="#84BE84" rx="3" ry="3" style="stroke: #038048; stroke-width: 1.0;"/><text fill="#000000" font-family="sans-serif" font-size="11" lengthAdjust="spacingAndGlyphs" textLength="193" x="778.5" y="275.5151">AddKey(ProductType productType)</text><!--MD5=[671947cd442c358d71518ac250abe6fc]
class PurchaseEntity--><rect codeLine="13" fill="#FEFECE" filter="url(#f1h8ecjbcv730y)" height="99.2188" id="PurchaseEntity" style="stroke: #A80036; stroke-width: 1.5;" width="414" x="309" y="196"/><ellipse cx="464.75" cy="212" fill="#ADD1B2" rx="11" ry="11" style="stroke: #A80036; stroke-width: 1.0;"/><path d="M467.7188,217.6406 Q467.1406,217.9375 466.5,218.0781 Q465.8594,218.2344 465.1563,218.2344 Q462.6563,218.2344 461.3281,216.5938 Q460.0156,214.9375 460.0156,211.8125 Q460.0156,208.6875 461.3281,207.0313 Q462.6563,205.375 465.1563,205.375 Q465.8594,205.375 466.5,205.5313 Q467.1563,205.6875 467.7188,205.9844 L467.7188,208.7031 Q467.0938,208.125 466.5,207.8594 Q465.9063,207.5781 465.2813,207.5781 Q463.9375,207.5781 463.25,208.6563 Q462.5625,209.7188 462.5625,211.8125 Q462.5625,213.9063 463.25,214.9844 Q463.9375,216.0469 465.2813,216.0469 Q465.9063,216.0469 466.5,215.7813 Q467.0938,215.5 467.7188,214.9219 L467.7188,217.6406 Z "/><text fill="#000000" font-family="sans-serif" font-size="12" lengthAdjust="spacingAndGlyphs" textLength="94" x="485.25" y="216.1543">PurchaseEntity</text><line style="stroke: #A80036; stroke-width: 1.5;" x1="310" x2="722" y1="228" y2="228"/><text fill="#000000" font-family="sans-serif" font-size="11" lengthAdjust="spacingAndGlyphs" textLength="122" x="315" y="242.2104">DateTime Timestamp</text><text fill="#000000" font-family="sans-serif" font-size="11" lengthAdjust="spacingAndGlyphs" textLength="93" x="315" y="255.0151">string Customer</text><text fill="#000000" font-family="sans-serif" font-size="11" lengthAdjust="spacingAndGlyphs" textLength="144" x="315" y="267.8198">BarcodeValue[] Barcodes</text><line style="stroke: #A80036; stroke-width: 1.0;" x1="310" x2="722" y1="274.4141" y2="274.4141"/><ellipse cx="320" cy="285.4141" fill="#84BE84" rx="3" ry="3" style="stroke: #038048; stroke-width: 1.0;"/><text fill="#000000" font-family="sans-serif" font-size="11" lengthAdjust="spacingAndGlyphs" text-decoration="underline" textLength="388" x="329" y="288.6245">Task&lt;PurchaseEntity&gt; CreateFromStream(Stream stream) «async»</text><path d="M6,225.5 L6,265.7656 A0,0 0 0 0 6,265.7656 L274,265.7656 A0,0 0 0 0 274,265.7656 L274,249.5 L308.9966,245.5 L274,241.5 L274,235.5 L264,225.5 L6,225.5 A0,0 0 0 0 6,225.5 " fill="#FBFB77" filter="url(#f1h8ecjbcv730y)" style="stroke: #A80036; stroke-width: 1.0;"/><path d="M264,225.5 L264,235.5 L274,235.5 L264,225.5 " fill="#FBFB77" style="stroke: #A80036; stroke-width: 1.0;"/><text fill="#000000" font-family="sans-serif" font-size="13" lengthAdjust="spacingAndGlyphs" textLength="247" x="12" y="242.5669">Timestamp is in the format MMDDYYYY</text><text fill="#000000" font-family="sans-serif" font-size="13" lengthAdjust="spacingAndGlyphs" textLength="150" x="28" y="257.6997">It is a char[8] in the file.</text><!--MD5=[e8fc92d1581ef7678cd836c92e5acb27]
class PurchaseAggregate--><rect codeLine="25" fill="#FEFECE" filter="url(#f1h8ecjbcv730y)" height="112.0234" id="PurchaseAggregate" style="stroke: #A80036; stroke-width: 1.5;" width="395" x="318.5" y="7"/><ellipse cx="449.25" cy="23" fill="#ADD1B2" rx="11" ry="11" style="stroke: #A80036; stroke-width: 1.0;"/><path d="M452.2188,28.6406 Q451.6406,28.9375 451,29.0781 Q450.3594,29.2344 449.6563,29.2344 Q447.1563,29.2344 445.8281,27.5938 Q444.5156,25.9375 444.5156,22.8125 Q444.5156,19.6875 445.8281,18.0313 Q447.1563,16.375 449.6563,16.375 Q450.3594,16.375 451,16.5313 Q451.6563,16.6875 452.2188,16.9844 L452.2188,19.7031 Q451.5938,19.125 451,18.8594 Q450.4063,18.5781 449.7813,18.5781 Q448.4375,18.5781 447.75,19.6563 Q447.0625,20.7188 447.0625,22.8125 Q447.0625,24.9063 447.75,25.9844 Q448.4375,27.0469 449.7813,27.0469 Q450.4063,27.0469 451,26.7813 Q451.5938,26.5 452.2188,25.9219 L452.2188,28.6406 Z "/><text fill="#000000" font-family="sans-serif" font-size="12" lengthAdjust="spacingAndGlyphs" textLength="125" x="469.75" y="27.1543">PurchaseAggregate</text><line style="stroke: #A80036; stroke-width: 1.5;" x1="319.5" x2="712.5" y1="39" y2="39"/><text fill="#000000" font-family="sans-serif" font-size="11" lengthAdjust="spacingAndGlyphs" textLength="141" x="324.5" y="53.2104">PurchaseEntity Purchase</text><line style="stroke: #A80036; stroke-width: 1.0;" x1="319.5" x2="712.5" y1="59.8047" y2="59.8047"/><ellipse cx="329.5" cy="70.8047" fill="#84BE84" rx="3" ry="3" style="stroke: #038048; stroke-width: 1.0;"/><text fill="#000000" font-family="sans-serif" font-size="11" lengthAdjust="spacingAndGlyphs" textLength="343" x="338.5" y="74.0151">PurchaseAggregate(PurchaseEntity purchase) «constructor»</text><ellipse cx="329.5" cy="83.6094" fill="#84BE84" rx="3" ry="3" style="stroke: #038048; stroke-width: 1.0;"/><text fill="#000000" font-family="sans-serif" font-size="11" lengthAdjust="spacingAndGlyphs" textLength="145" x="338.5" y="86.8198">UniqueId[] GetUniqueIds()</text><ellipse cx="329.5" cy="96.4141" fill="#84BE84" rx="3" ry="3" style="stroke: #038048; stroke-width: 1.0;"/><text fill="#000000" font-family="sans-serif" font-size="11" lengthAdjust="spacingAndGlyphs" textLength="231" x="338.5" y="99.6245">BarcodeValue GetMostCommonProduct()</text><ellipse cx="329.5" cy="109.2188" fill="#84BE84" rx="3" ry="3" style="stroke: #038048; stroke-width: 1.0;"/><text fill="#000000" font-family="sans-serif" font-size="11" lengthAdjust="spacingAndGlyphs" textLength="369" x="338.5" y="112.4292">ProductSubtype[] GetProductSubtypes(ProductType productType)</text><!--MD5=[1df63dfd86191f66658c3ff5ac07bcec]
class char4--><rect codeLine="34" fill="#FEFECE" filter="url(#f1h8ecjbcv730y)" height="48" id="char4" style="stroke: #A80036; stroke-width: 1.5;" width="78" x="850" y="481"/><ellipse cx="865" cy="497" fill="#ADD1B2" rx="11" ry="11" style="stroke: #A80036; stroke-width: 1.0;"/><path d="M867.9688,502.6406 Q867.3906,502.9375 866.75,503.0781 Q866.1094,503.2344 865.4063,503.2344 Q862.9063,503.2344 861.5781,501.5938 Q860.2656,499.9375 860.2656,496.8125 Q860.2656,493.6875 861.5781,492.0313 Q862.9063,490.375 865.4063,490.375 Q866.1094,490.375 866.75,490.5313 Q867.4063,490.6875 867.9688,490.9844 L867.9688,493.7031 Q867.3438,493.125 866.75,492.8594 Q866.1563,492.5781 865.5313,492.5781 Q864.1875,492.5781 863.5,493.6563 Q862.8125,494.7188 862.8125,496.8125 Q862.8125,498.9063 863.5,499.9844 Q864.1875,501.0469 865.5313,501.0469 Q866.1563,501.0469 866.75,500.7813 Q867.3438,500.5 867.9688,499.9219 L867.9688,502.6406 Z "/><text fill="#000000" font-family="sans-serif" font-size="12" lengthAdjust="spacingAndGlyphs" textLength="46" x="879" y="501.1543">char[4]</text><line style="stroke: #A80036; stroke-width: 1.5;" x1="851" x2="927" y1="513" y2="513"/><line style="stroke: #A80036; stroke-width: 1.5;" x1="851" x2="927" y1="521" y2="521"/><!--MD5=[d414c1439478ec690b063dc882792ba0]
class char6--><rect codeLine="35" fill="#FEFECE" filter="url(#f1h8ecjbcv730y)" height="48" id="char6" style="stroke: #A80036; stroke-width: 1.5;" width="78" x="1140" y="481"/><ellipse cx="1155" cy="497" fill="#ADD1B2" rx="11" ry="11" style="stroke: #A80036; stroke-width: 1.0;"/><path d="M1157.9688,502.6406 Q1157.3906,502.9375 1156.75,503.0781 Q1156.1094,503.2344 1155.4063,503.2344 Q1152.9063,503.2344 1151.5781,501.5938 Q1150.2656,499.9375 1150.2656,496.8125 Q1150.2656,493.6875 1151.5781,492.0313 Q1152.9063,490.375 1155.4063,490.375 Q1156.1094,490.375 1156.75,490.5313 Q1157.4063,490.6875 1157.9688,490.9844 L1157.9688,493.7031 Q1157.3438,493.125 1156.75,492.8594 Q1156.1563,492.5781 1155.5313,492.5781 Q1154.1875,492.5781 1153.5,493.6563 Q1152.8125,494.7188 1152.8125,496.8125 Q1152.8125,498.9063 1153.5,499.9844 Q1154.1875,501.0469 1155.5313,501.0469 Q1156.1563,501.0469 1156.75,500.7813 Q1157.3438,500.5 1157.9688,499.9219 L1157.9688,502.6406 Z "/><text fill="#000000" font-family="sans-serif" font-size="12" lengthAdjust="spacingAndGlyphs" textLength="46" x="1169" y="501.1543">char[6]</text><line style="stroke: #A80036; stroke-width: 1.5;" x1="1141" x2="1217" y1="513" y2="513"/><line style="stroke: #A80036; stroke-width: 1.5;" x1="1141" x2="1217" y1="521" y2="521"/><!--MD5=[90f7b85f4a131ee50bce9a03488a6151]
class char20--><rect codeLine="36" fill="#FEFECE" filter="url(#f1h8ecjbcv730y)" height="48" id="char20" style="stroke: #A80036; stroke-width: 1.5;" width="86" x="991" y="481"/><ellipse cx="1006" cy="497" fill="#ADD1B2" rx="11" ry="11" style="stroke: #A80036; stroke-width: 1.0;"/><path d="M1008.9688,502.6406 Q1008.3906,502.9375 1007.75,503.0781 Q1007.1094,503.2344 1006.4063,503.2344 Q1003.9063,503.2344 1002.5781,501.5938 Q1001.2656,499.9375 1001.2656,496.8125 Q1001.2656,493.6875 1002.5781,492.0313 Q1003.9063,490.375 1006.4063,490.375 Q1007.1094,490.375 1007.75,490.5313 Q1008.4063,490.6875 1008.9688,490.9844 L1008.9688,493.7031 Q1008.3438,493.125 1007.75,492.8594 Q1007.1563,492.5781 1006.5313,492.5781 Q1005.1875,492.5781 1004.5,493.6563 Q1003.8125,494.7188 1003.8125,496.8125 Q1003.8125,498.9063 1004.5,499.9844 Q1005.1875,501.0469 1006.5313,501.0469 Q1007.1563,501.0469 1007.75,500.7813 Q1008.3438,500.5 1008.9688,499.9219 L1008.9688,502.6406 Z "/><text fill="#000000" font-family="sans-serif" font-size="12" lengthAdjust="spacingAndGlyphs" textLength="54" x="1020" y="501.1543">char[20]</text><line style="stroke: #A80036; stroke-width: 1.5;" x1="992" x2="1076" y1="513" y2="513"/><line style="stroke: #A80036; stroke-width: 1.5;" x1="992" x2="1076" y1="521" y2="521"/><!--MD5=[7cb0288c84a1b86723f24458faac24ec]
class ProductType--><rect fill="#FEFECE" filter="url(#f1h8ecjbcv730y)" height="48" id="ProductType" style="stroke: #A80036; stroke-width: 1.5;" width="110" x="834" y="372"/><ellipse cx="849" cy="388" fill="#ADD1B2" rx="11" ry="11" style="stroke: #A80036; stroke-width: 1.0;"/><path d="M851.9688,393.6406 Q851.3906,393.9375 850.75,394.0781 Q850.1094,394.2344 849.4063,394.2344 Q846.9063,394.2344 845.5781,392.5938 Q844.2656,390.9375 844.2656,387.8125 Q844.2656,384.6875 845.5781,383.0313 Q846.9063,381.375 849.4063,381.375 Q850.1094,381.375 850.75,381.5313 Q851.4063,381.6875 851.9688,381.9844 L851.9688,384.7031 Q851.3438,384.125 850.75,383.8594 Q850.1563,383.5781 849.5313,383.5781 Q848.1875,383.5781 847.5,384.6563 Q846.8125,385.7188 846.8125,387.8125 Q846.8125,389.9063 847.5,390.9844 Q848.1875,392.0469 849.5313,392.0469 Q850.1563,392.0469 850.75,391.7813 Q851.3438,391.5 851.9688,390.9219 L851.9688,393.6406 Z "/><text fill="#000000" font-family="sans-serif" font-size="12" lengthAdjust="spacingAndGlyphs" textLength="78" x="863" y="392.1543">ProductType</text><line style="stroke: #A80036; stroke-width: 1.5;" x1="835" x2="943" y1="404" y2="404"/><line style="stroke: #A80036; stroke-width: 1.5;" x1="835" x2="943" y1="412" y2="412"/><!--MD5=[4eab479a2f4c54ed0e7d5fe4b7c80dcd]
class ProductSubtype--><rect fill="#FEFECE" filter="url(#f1h8ecjbcv730y)" height="48" id="ProductSubtype" style="stroke: #A80036; stroke-width: 1.5;" width="132" x="1113" y="372"/><ellipse cx="1128" cy="388" fill="#ADD1B2" rx="11" ry="11" style="stroke: #A80036; stroke-width: 1.0;"/><path d="M1130.9688,393.6406 Q1130.3906,393.9375 1129.75,394.0781 Q1129.1094,394.2344 1128.4063,394.2344 Q1125.9063,394.2344 1124.5781,392.5938 Q1123.2656,390.9375 1123.2656,387.8125 Q1123.2656,384.6875 1124.5781,383.0313 Q1125.9063,381.375 1128.4063,381.375 Q1129.1094,381.375 1129.75,381.5313 Q1130.4063,381.6875 1130.9688,381.9844 L1130.9688,384.7031 Q1130.3438,384.125 1129.75,383.8594 Q1129.1563,383.5781 1128.5313,383.5781 Q1127.1875,383.5781 1126.5,384.6563 Q1125.8125,385.7188 1125.8125,387.8125 Q1125.8125,389.9063 1126.5,390.9844 Q1127.1875,392.0469 1128.5313,392.0469 Q1129.1563,392.0469 1129.75,391.7813 Q1130.3438,391.5 1130.9688,390.9219 L1130.9688,393.6406 Z "/><text fill="#000000" font-family="sans-serif" font-size="12" lengthAdjust="spacingAndGlyphs" textLength="100" x="1142" y="392.1543">ProductSubtype</text><line style="stroke: #A80036; stroke-width: 1.5;" x1="1114" x2="1244" y1="404" y2="404"/><line style="stroke: #A80036; stroke-width: 1.5;" x1="1114" x2="1244" y1="412" y2="412"/><!--MD5=[4687303e4a020900352916a83efd4817]
class UniqueId--><rect fill="#FEFECE" filter="url(#f1h8ecjbcv730y)" height="48" id="UniqueId" style="stroke: #A80036; stroke-width: 1.5;" width="87" x="990.5" y="372"/><ellipse cx="1005.5" cy="388" fill="#ADD1B2" rx="11" ry="11" style="stroke: #A80036; stroke-width: 1.0;"/><path d="M1008.4688,393.6406 Q1007.8906,393.9375 1007.25,394.0781 Q1006.6094,394.2344 1005.9063,394.2344 Q1003.4063,394.2344 1002.0781,392.5938 Q1000.7656,390.9375 1000.7656,387.8125 Q1000.7656,384.6875 1002.0781,383.0313 Q1003.4063,381.375 1005.9063,381.375 Q1006.6094,381.375 1007.25,381.5313 Q1007.9063,381.6875 1008.4688,381.9844 L1008.4688,384.7031 Q1007.8438,384.125 1007.25,383.8594 Q1006.6563,383.5781 1006.0313,383.5781 Q1004.6875,383.5781 1004,384.6563 Q1003.3125,385.7188 1003.3125,387.8125 Q1003.3125,389.9063 1004,390.9844 Q1004.6875,392.0469 1006.0313,392.0469 Q1006.6563,392.0469 1007.25,391.7813 Q1007.8438,391.5 1008.4688,390.9219 L1008.4688,393.6406 Z "/><text fill="#000000" font-family="sans-serif" font-size="12" lengthAdjust="spacingAndGlyphs" textLength="55" x="1019.5" y="392.1543">UniqueId</text><line style="stroke: #A80036; stroke-width: 1.5;" x1="991.5" x2="1076.5" y1="404" y2="404"/><line style="stroke: #A80036; stroke-width: 1.5;" x1="991.5" x2="1076.5" y1="412" y2="412"/><path d="M1280.5,376 L1280.5,392 L1245.3223,396 L1280.5,400 L1280.5,416.2656 A0,0 0 0 0 1280.5,416.2656 L1539.5,416.2656 A0,0 0 0 0 1539.5,416.2656 L1539.5,386 L1529.5,376 L1280.5,376 A0,0 0 0 0 1280.5,376 " fill="#FBFB77" filter="url(#f1h8ecjbcv730y)" style="stroke: #A80036; stroke-width: 1.0;"/><path d="M1529.5,376 L1529.5,386 L1539.5,386 L1529.5,376 " fill="#FBFB77" style="stroke: #A80036; stroke-width: 1.0;"/><text fill="#000000" font-family="sans-serif" font-size="13" lengthAdjust="spacingAndGlyphs" textLength="238" x="1286.5" y="393.0669">Each of these char[] types is a string,</text><text fill="#000000" font-family="sans-serif" font-size="13" lengthAdjust="spacingAndGlyphs" textLength="188" x="1302.5" y="408.1997">this is just to denote the size.</text><!--MD5=[2ec478639462d171230d7bee6ac3d8ea]
class BarcodeValue--><rect codeLine="46" fill="#FEFECE" filter="url(#f1h8ecjbcv730y)" height="86.4141" id="BarcodeValue" style="stroke: #A80036; stroke-width: 1.5;" width="194" x="1013" y="202.5"/><ellipse cx="1062.25" cy="218.5" fill="#ADD1B2" rx="11" ry="11" style="stroke: #A80036; stroke-width: 1.0;"/><path d="M1065.2188,224.1406 Q1064.6406,224.4375 1064,224.5781 Q1063.3594,224.7344 1062.6563,224.7344 Q1060.1563,224.7344 1058.8281,223.0938 Q1057.5156,221.4375 1057.5156,218.3125 Q1057.5156,215.1875 1058.8281,213.5313 Q1060.1563,211.875 1062.6563,211.875 Q1063.3594,211.875 1064,212.0313 Q1064.6563,212.1875 1065.2188,212.4844 L1065.2188,215.2031 Q1064.5938,214.625 1064,214.3594 Q1063.4063,214.0781 1062.7813,214.0781 Q1061.4375,214.0781 1060.75,215.1563 Q1060.0625,216.2188 1060.0625,218.3125 Q1060.0625,220.4063 1060.75,221.4844 Q1061.4375,222.5469 1062.7813,222.5469 Q1063.4063,222.5469 1064,222.2813 Q1064.5938,222 1065.2188,221.4219 L1065.2188,224.1406 Z "/><text fill="#000000" font-family="sans-serif" font-size="12" lengthAdjust="spacingAndGlyphs" textLength="87" x="1082.75" y="222.6543">BarcodeValue</text><line style="stroke: #A80036; stroke-width: 1.5;" x1="1014" x2="1206" y1="234.5" y2="234.5"/><text fill="#000000" font-family="sans-serif" font-size="11" lengthAdjust="spacingAndGlyphs" textLength="144" x="1019" y="248.7104">ProductType ProductType</text><text fill="#000000" font-family="sans-serif" font-size="11" lengthAdjust="spacingAndGlyphs" textLength="182" x="1019" y="261.5151">ProductSubtype ProductSubtype</text><text fill="#000000" font-family="sans-serif" font-size="11" lengthAdjust="spacingAndGlyphs" textLength="63" x="1019" y="274.3198">UniqueId Id</text><line style="stroke: #A80036; stroke-width: 1.5;" x1="1014" x2="1206" y1="280.9141" y2="280.9141"/><!--MD5=[112a80c0b29926b21c2c69743f7c09e0]
reverse link ProductType to char4--><path codeLine="38" d="M889,440.5974 C889,454.3785 889,469.0337 889,480.877 " fill="none" id="ProductType-backto-char4" style="stroke: #A80036; stroke-width: 1.0;"/><polygon fill="none" points="882.0001,440.1907,889,420.1906,896.0001,440.1906,882.0001,440.1907" style="stroke: #A80036; stroke-width: 1.0;"/><!--MD5=[cbe2690a0de983202134487b4cc7da17]
reverse link ProductSubtype to char6--><path codeLine="39" d="M1179,440.5974 C1179,454.3785 1179,469.0337 1179,480.877 " fill="none" id="ProductSubtype-backto-char6" style="stroke: #A80036; stroke-width: 1.0;"/><polygon fill="none" points="1172.0001,440.1907,1179,420.1906,1186.0001,440.1906,1172.0001,440.1907" style="stroke: #A80036; stroke-width: 1.0;"/><!--MD5=[8d6543b5890c3d6e45995fbe42792881]
reverse link UniqueId to char20--><path codeLine="40" d="M1034,440.5974 C1034,454.3785 1034,469.0337 1034,480.877 " fill="none" id="UniqueId-backto-char20" style="stroke: #A80036; stroke-width: 1.0;"/><polygon fill="none" points="1027.0001,440.1907,1034,420.1906,1041.0001,440.1906,1027.0001,440.1907" style="stroke: #A80036; stroke-width: 1.0;"/><!--MD5=[e4570c0606611bf1dc7c9a037391ac9e]
reverse link BarcodeValue to ProductType--><path codeLine="52" d="M1035.7562,296.0597 C998.2162,321.6243 954.3974,351.4647 924.4797,371.8385 " fill="none" id="BarcodeValue-backto-ProductType" style="stroke: #A80036; stroke-width: 1.0;"/><polygon fill="#A80036" points="1046.6703,288.6273,1039.4595,288.6984,1036.7518,295.3819,1043.9626,295.3107,1046.6703,288.6273" style="stroke: #A80036; stroke-width: 1.0;"/><text fill="#000000" font-family="sans-serif" font-size="13" lengthAdjust="spacingAndGlyphs" textLength="23" x="994" y="338.0669">has</text><!--MD5=[90e469feedf07599cda631b88783a1ef]
reverse link BarcodeValue to ProductSubtype--><path codeLine="53" d="M1135.2945,300.6714 C1146.4734,325.0542 1159.0435,352.4716 1167.8235,371.6222 " fill="none" id="BarcodeValue-backto-ProductSubtype" style="stroke: #A80036; stroke-width: 1.0;"/><polygon fill="#A80036" points="1129.7726,288.6273,1128.6371,295.7484,1134.7738,299.5355,1135.9092,292.4143,1129.7726,288.6273" style="stroke: #A80036; stroke-width: 1.0;"/><text fill="#000000" font-family="sans-serif" font-size="13" lengthAdjust="spacingAndGlyphs" textLength="23" x="1153" y="338.0669">has</text><!--MD5=[5935fb1481616f24c150c3c948a492c7]
reverse link BarcodeValue to UniqueId--><path codeLine="54" d="M1082.308,300.3375 C1069.953,324.8037 1056.0253,352.3842 1046.3104,371.6222 " fill="none" id="BarcodeValue-backto-UniqueId" style="stroke: #A80036; stroke-width: 1.0;"/><polygon fill="#A80036" points="1088.2215,288.6273,1081.9463,292.1801,1082.8123,299.339,1089.0874,295.7862,1088.2215,288.6273" style="stroke: #A80036; stroke-width: 1.0;"/><text fill="#000000" font-family="sans-serif" font-size="13" lengthAdjust="spacingAndGlyphs" textLength="23" x="1070" y="338.0669">has</text><!--MD5=[a87f2186e319fb0b387b1aebf3b03873]
reverse link ProductKeys to ProductType--><path codeLine="56" d="M874.9985,295.656 C878.5818,321.3366 882.7796,351.4205 885.6376,371.903 " fill="none" id="ProductKeys-backto-ProductType" style="stroke: #A80036; stroke-width: 1.0;"/><polygon fill="#A80036" points="873.191,282.7023,870.0586,289.1975,874.8494,294.5872,877.9818,288.0919,873.191,282.7023" style="stroke: #A80036; stroke-width: 1.0;"/><text fill="#000000" font-family="sans-serif" font-size="13" lengthAdjust="spacingAndGlyphs" textLength="63" x="882" y="338.0669">has many</text><!--MD5=[84e03a7594d8772ae95a0ef04d630b96]
reverse link PurchaseEntity to BarcodeValue--><path codeLine="58" d="M648.4606,191.7345 C722.3359,168.1452 816.1894,148.7024 900.5,163 C942.7011,170.1565 987.1299,186.2848 1024.1597,202.4004 " fill="none" id="PurchaseEntity-backto-BarcodeValue" style="stroke: #A80036; stroke-width: 1.0;"/><polygon fill="#A80036" points="635.8455,195.8645,642.7923,197.7991,647.2499,192.1308,640.3031,190.1962,635.8455,195.8645" style="stroke: #A80036; stroke-width: 1.0;"/><text fill="#000000" font-family="sans-serif" font-size="13" lengthAdjust="spacingAndGlyphs" textLength="63" x="836.5" y="162.0669">has many</text><!--MD5=[1cf9afa4dd37f77dbb4d68c3c1c6e1ec]
reverse link PurchaseAggregate to PurchaseEntity--><path codeLine="60" d="M516,132.4895 C516,153.6166 516,176.3964 516,195.9305 " fill="none" id="PurchaseAggregate-backto-PurchaseEntity" style="stroke: #A80036; stroke-width: 1.0;"/><polygon fill="#A80036" points="516,119.2452,512,125.2452,516,131.2452,520,125.2452,516,119.2452" style="stroke: #A80036; stroke-width: 1.0;"/><text fill="#000000" font-family="sans-serif" font-size="13" lengthAdjust="spacingAndGlyphs" textLength="63" x="517" y="162.0669">has many</text><!--MD5=[4af4e15542cdc22636bf969809665d8b]
@startuml
'01232020Jamie
'BEVGTTKYGDGJHGTFBNGDVZJGDIPXVS
'CANFDNSKAVOUXSCGSYBHQYHNMDQOBL
'FRZNQQNPSESCHIMIXOUHNAWLXRZEPT
'BEVGZYUFGNIHDCZIPWLZJLPDSGNEAH

class ProductKeys {
    ProductType[] Keys
    - -
    +AddKey(ProductType productType)
}

class PurchaseEntity {
    DateTime Timestamp
    string Customer
    BarcodeValue[] Barcodes
    - -
    {static} +Task<PurchaseEntity> CreateFromStream(Stream stream) <<async>>
}
note left
Timestamp is in the format MMDDYYYY
    It is a char[8] in the file.
end note

class PurchaseAggregate {
    PurchaseEntity Purchase
    - -
    +PurchaseAggregate(PurchaseEntity purchase) <<constructor>>
    +UniqueId[] GetUniqueIds()
    +BarcodeValue GetMostCommonProduct()
    +ProductSubtype[] GetProductSubtypes(ProductType productType)
}

class "char[4]" as char4
class "char[6]" as char6
class "char[20]" as char20

ProductType <|- - char4
ProductSubtype <|- - char6
UniqueId <|- - char20
note right of ProductSubtype
Each of these char[] types is a string,
    this is just to denote the size.
end note

class BarcodeValue {
    ProductType ProductType
    ProductSubtype ProductSubtype
    UniqueId Id
}

BarcodeValue *- - ProductType : has
BarcodeValue *- - ProductSubtype : has
BarcodeValue *- - UniqueId : has

ProductKeys *- - ProductType : has many

PurchaseEntity *- BarcodeValue : has many

PurchaseAggregate *- - PurchaseEntity : has many
@enduml

@startuml

class ProductKeys {
    ProductType[] Keys
    - -
    +AddKey(ProductType productType)
}

class PurchaseEntity {
    DateTime Timestamp
    string Customer
    BarcodeValue[] Barcodes
    - -
    {static} +Task<PurchaseEntity> CreateFromStream(Stream stream) <<async>>
}
note left
Timestamp is in the format MMDDYYYY
    It is a char[8] in the file.
end note

class PurchaseAggregate {
    PurchaseEntity Purchase
    - -
    +PurchaseAggregate(PurchaseEntity purchase) <<constructor>>
    +UniqueId[] GetUniqueIds()
    +BarcodeValue GetMostCommonProduct()
    +ProductSubtype[] GetProductSubtypes(ProductType productType)
}

class "char[4]" as char4
class "char[6]" as char6
class "char[20]" as char20

ProductType <|- - char4
ProductSubtype <|- - char6
UniqueId <|- - char20
note right of ProductSubtype
Each of these char[] types is a string,
    this is just to denote the size.
end note

class BarcodeValue {
    ProductType ProductType
    ProductSubtype ProductSubtype
    UniqueId Id
}

BarcodeValue *- - ProductType : has
BarcodeValue *- - ProductSubtype : has
BarcodeValue *- - UniqueId : has

ProductKeys *- - ProductType : has many

PurchaseEntity *- BarcodeValue : has many

PurchaseAggregate *- - PurchaseEntity : has many
@enduml

PlantUML version 1.2020.16(Sun Aug 23 20:20:43 UTC 2020)
(GPL source distribution)
Java Runtime: OpenJDK Runtime Environment
JVM: OpenJDK 64-Bit Server VM
Default Encoding: UTF-8
Language: en
Country: null
--></g></svg>