<?xml version="1.0" encoding="UTF-8" standalone="no"?><svg xmlns="http://www.w3.org/2000/svg" xmlns:xlink="http://www.w3.org/1999/xlink" contentScriptType="application/ecmascript" contentStyleType="text/css" height="535px" preserveAspectRatio="none" style="width:992px;height:535px;" version="1.1" viewBox="0 0 992 535" width="992px" zoomAndPan="magnify"><defs><filter height="300%" id="f1qn5pmj6svclo" width="300%" x="-1" y="-1"><feGaussianBlur result="blurOut" stdDeviation="2.0"/><feColorMatrix in="blurOut" result="blurOut2" type="matrix" values="0 0 0 0 0 0 0 0 0 0 0 0 0 0 0 0 0 0 .4 0"/><feOffset dx="4.0" dy="4.0" in="blurOut2" result="blurOut3"/><feBlend in="SourceGraphic" in2="blurOut3" mode="normal"/></filter></defs><g><!--MD5=[d3233576720ea02f117c182edecf3358]
class ProductKeys--><rect codeLine="7" fill="#FEFECE" filter="url(#f1qn5pmj6svclo)" height="73.6094" id="ProductKeys" style="stroke: #A80036; stroke-width: 1.5;" width="219" x="754.5" y="202"/><ellipse cx="821.25" cy="218" fill="#ADD1B2" rx="11" ry="11" style="stroke: #A80036; stroke-width: 1.0;"/><path d="M824.2188,223.6406 Q823.6406,223.9375 823,224.0781 Q822.3594,224.2344 821.6563,224.2344 Q819.1563,224.2344 817.8281,222.5938 Q816.5156,220.9375 816.5156,217.8125 Q816.5156,214.6875 817.8281,213.0313 Q819.1563,211.375 821.6563,211.375 Q822.3594,211.375 823,211.5313 Q823.6563,211.6875 824.2188,211.9844 L824.2188,214.7031 Q823.5938,214.125 823,213.8594 Q822.4063,213.5781 821.7813,213.5781 Q820.4375,213.5781 819.75,214.6563 Q819.0625,215.7188 819.0625,217.8125 Q819.0625,219.9063 819.75,220.9844 Q820.4375,222.0469 821.7813,222.0469 Q822.4063,222.0469 823,221.7813 Q823.5938,221.5 824.2188,220.9219 L824.2188,223.6406 Z "/><text fill="#000000" font-family="sans-serif" font-size="12" lengthAdjust="spacingAndGlyphs" textLength="77" x="841.75" y="222.1543">ProductKeys</text><line style="stroke: #A80036; stroke-width: 1.5;" x1="755.5" x2="972.5" y1="234" y2="234"/><text fill="#000000" font-family="sans-serif" font-size="11" lengthAdjust="spacingAndGlyphs" textLength="109" x="760.5" y="248.2104">ProductType[] Keys</text><line style="stroke: #A80036; stroke-width: 1.0;" x1="755.5" x2="972.5" y1="254.8047" y2="254.8047"/><ellipse cx="765.5" cy="265.8047" fill="#84BE84" rx="3" ry="3" style="stroke: #038048; stroke-width: 1.0;"/><text fill="#000000" font-family="sans-serif" font-size="11" lengthAdjust="spacingAndGlyphs" textLength="193" x="774.5" y="269.0151">AddKey(ProductType productType)</text><!--MD5=[671947cd442c358d71518ac250abe6fc]
class PurchaseEntity--><rect codeLine="13" fill="#FEFECE" filter="url(#f1qn5pmj6svclo)" height="86.4141" id="PurchaseEntity" style="stroke: #A80036; stroke-width: 1.5;" width="156" x="309" y="196"/><ellipse cx="337.5" cy="212" fill="#ADD1B2" rx="11" ry="11" style="stroke: #A80036; stroke-width: 1.0;"/><path d="M340.4688,217.6406 Q339.8906,217.9375 339.25,218.0781 Q338.6094,218.2344 337.9063,218.2344 Q335.4063,218.2344 334.0781,216.5938 Q332.7656,214.9375 332.7656,211.8125 Q332.7656,208.6875 334.0781,207.0313 Q335.4063,205.375 337.9063,205.375 Q338.6094,205.375 339.25,205.5313 Q339.9063,205.6875 340.4688,205.9844 L340.4688,208.7031 Q339.8438,208.125 339.25,207.8594 Q338.6563,207.5781 338.0313,207.5781 Q336.6875,207.5781 336,208.6563 Q335.3125,209.7188 335.3125,211.8125 Q335.3125,213.9063 336,214.9844 Q336.6875,216.0469 338.0313,216.0469 Q338.6563,216.0469 339.25,215.7813 Q339.8438,215.5 340.4688,214.9219 L340.4688,217.6406 Z "/><text fill="#000000" font-family="sans-serif" font-size="12" lengthAdjust="spacingAndGlyphs" textLength="94" x="354.5" y="216.1543">PurchaseEntity</text><line style="stroke: #A80036; stroke-width: 1.5;" x1="310" x2="464" y1="228" y2="228"/><text fill="#000000" font-family="sans-serif" font-size="11" lengthAdjust="spacingAndGlyphs" textLength="108" x="315" y="242.2104">char[8] Timestamp</text><text fill="#000000" font-family="sans-serif" font-size="11" lengthAdjust="spacingAndGlyphs" textLength="93" x="315" y="255.0151">string Customer</text><text fill="#000000" font-family="sans-serif" font-size="11" lengthAdjust="spacingAndGlyphs" textLength="144" x="315" y="267.8198">BarcodeValue[] Barcodes</text><line style="stroke: #A80036; stroke-width: 1.5;" x1="310" x2="464" y1="274.4141" y2="274.4141"/><path d="M6,226.5 L6,251.6328 A0,0 0 0 0 6,251.6328 L274,251.6328 A0,0 0 0 0 274,251.6328 L274,244.5 L308.9494,239 L274,236.5 L274,236.5 L264,226.5 L6,226.5 A0,0 0 0 0 6,226.5 " fill="#FBFB77" filter="url(#f1qn5pmj6svclo)" style="stroke: #A80036; stroke-width: 1.0;"/><path d="M264,226.5 L264,236.5 L274,236.5 L264,226.5 " fill="#FBFB77" style="stroke: #A80036; stroke-width: 1.0;"/><text fill="#000000" font-family="sans-serif" font-size="13" lengthAdjust="spacingAndGlyphs" textLength="247" x="12" y="243.5669">Timestamp is in the format MMDDYYYY</text><!--MD5=[e8fc92d1581ef7678cd836c92e5acb27]
class PurchaseAggregate--><rect codeLine="20" fill="#FEFECE" filter="url(#f1qn5pmj6svclo)" height="112.0234" id="PurchaseAggregate" style="stroke: #A80036; stroke-width: 1.5;" width="401" x="186.5" y="7"/><ellipse cx="320.25" cy="23" fill="#ADD1B2" rx="11" ry="11" style="stroke: #A80036; stroke-width: 1.0;"/><path d="M323.2188,28.6406 Q322.6406,28.9375 322,29.0781 Q321.3594,29.2344 320.6563,29.2344 Q318.1563,29.2344 316.8281,27.5938 Q315.5156,25.9375 315.5156,22.8125 Q315.5156,19.6875 316.8281,18.0313 Q318.1563,16.375 320.6563,16.375 Q321.3594,16.375 322,16.5313 Q322.6563,16.6875 323.2188,16.9844 L323.2188,19.7031 Q322.5938,19.125 322,18.8594 Q321.4063,18.5781 320.7813,18.5781 Q319.4375,18.5781 318.75,19.6563 Q318.0625,20.7188 318.0625,22.8125 Q318.0625,24.9063 318.75,25.9844 Q319.4375,27.0469 320.7813,27.0469 Q321.4063,27.0469 322,26.7813 Q322.5938,26.5 323.2188,25.9219 L323.2188,28.6406 Z "/><text fill="#000000" font-family="sans-serif" font-size="12" lengthAdjust="spacingAndGlyphs" textLength="125" x="340.75" y="27.1543">PurchaseAggregate</text><line style="stroke: #A80036; stroke-width: 1.5;" x1="187.5" x2="586.5" y1="39" y2="39"/><text fill="#000000" font-family="sans-serif" font-size="11" lengthAdjust="spacingAndGlyphs" textLength="156" x="192.5" y="53.2104">PurchaseEntity[] Purchases</text><line style="stroke: #A80036; stroke-width: 1.0;" x1="187.5" x2="586.5" y1="59.8047" y2="59.8047"/><ellipse cx="197.5" cy="70.8047" fill="#84BE84" rx="3" ry="3" style="stroke: #038048; stroke-width: 1.0;"/><text fill="#000000" font-family="sans-serif" font-size="11" lengthAdjust="spacingAndGlyphs" textLength="120" x="206.5" y="74.0151">string GetSummary()</text><ellipse cx="197.5" cy="83.6094" fill="#84BE84" rx="3" ry="3" style="stroke: #038048; stroke-width: 1.0;"/><text fill="#000000" font-family="sans-serif" font-size="11" lengthAdjust="spacingAndGlyphs" textLength="145" x="206.5" y="86.8198">UniqueId[] GetUniqueIds()</text><ellipse cx="197.5" cy="96.4141" fill="#84BE84" rx="3" ry="3" style="stroke: #038048; stroke-width: 1.0;"/><text fill="#000000" font-family="sans-serif" font-size="11" lengthAdjust="spacingAndGlyphs" textLength="258" x="206.5" y="99.6245">BarcodeValue GetMostCommonProductType()</text><ellipse cx="197.5" cy="109.2188" fill="#84BE84" rx="3" ry="3" style="stroke: #038048; stroke-width: 1.0;"/><text fill="#000000" font-family="sans-serif" font-size="11" lengthAdjust="spacingAndGlyphs" textLength="375" x="206.5" y="112.4292">ProductSubType[] GetProductSubTypes(ProductType productType)</text><!--MD5=[1df63dfd86191f66658c3ff5ac07bcec]
class char4--><rect codeLine="29" fill="#FEFECE" filter="url(#f1qn5pmj6svclo)" height="48" id="char4" style="stroke: #A80036; stroke-width: 1.5;" width="78" x="806" y="468"/><ellipse cx="821" cy="484" fill="#ADD1B2" rx="11" ry="11" style="stroke: #A80036; stroke-width: 1.0;"/><path d="M823.9688,489.6406 Q823.3906,489.9375 822.75,490.0781 Q822.1094,490.2344 821.4063,490.2344 Q818.9063,490.2344 817.5781,488.5938 Q816.2656,486.9375 816.2656,483.8125 Q816.2656,480.6875 817.5781,479.0313 Q818.9063,477.375 821.4063,477.375 Q822.1094,477.375 822.75,477.5313 Q823.4063,477.6875 823.9688,477.9844 L823.9688,480.7031 Q823.3438,480.125 822.75,479.8594 Q822.1563,479.5781 821.5313,479.5781 Q820.1875,479.5781 819.5,480.6563 Q818.8125,481.7188 818.8125,483.8125 Q818.8125,485.9063 819.5,486.9844 Q820.1875,488.0469 821.5313,488.0469 Q822.1563,488.0469 822.75,487.7813 Q823.3438,487.5 823.9688,486.9219 L823.9688,489.6406 Z "/><text fill="#000000" font-family="sans-serif" font-size="12" lengthAdjust="spacingAndGlyphs" textLength="46" x="835" y="488.1543">char[4]</text><line style="stroke: #A80036; stroke-width: 1.5;" x1="807" x2="883" y1="500" y2="500"/><line style="stroke: #A80036; stroke-width: 1.5;" x1="807" x2="883" y1="508" y2="508"/><!--MD5=[d414c1439478ec690b063dc882792ba0]
class char6--><rect codeLine="30" fill="#FEFECE" filter="url(#f1qn5pmj6svclo)" height="48" id="char6" style="stroke: #A80036; stroke-width: 1.5;" width="78" x="520" y="468"/><ellipse cx="535" cy="484" fill="#ADD1B2" rx="11" ry="11" style="stroke: #A80036; stroke-width: 1.0;"/><path d="M537.9688,489.6406 Q537.3906,489.9375 536.75,490.0781 Q536.1094,490.2344 535.4063,490.2344 Q532.9063,490.2344 531.5781,488.5938 Q530.2656,486.9375 530.2656,483.8125 Q530.2656,480.6875 531.5781,479.0313 Q532.9063,477.375 535.4063,477.375 Q536.1094,477.375 536.75,477.5313 Q537.4063,477.6875 537.9688,477.9844 L537.9688,480.7031 Q537.3438,480.125 536.75,479.8594 Q536.1563,479.5781 535.5313,479.5781 Q534.1875,479.5781 533.5,480.6563 Q532.8125,481.7188 532.8125,483.8125 Q532.8125,485.9063 533.5,486.9844 Q534.1875,488.0469 535.5313,488.0469 Q536.1563,488.0469 536.75,487.7813 Q537.3438,487.5 537.9688,486.9219 L537.9688,489.6406 Z "/><text fill="#000000" font-family="sans-serif" font-size="12" lengthAdjust="spacingAndGlyphs" textLength="46" x="549" y="488.1543">char[6]</text><line style="stroke: #A80036; stroke-width: 1.5;" x1="521" x2="597" y1="500" y2="500"/><line style="stroke: #A80036; stroke-width: 1.5;" x1="521" x2="597" y1="508" y2="508"/><!--MD5=[90f7b85f4a131ee50bce9a03488a6151]
class char20--><rect codeLine="31" fill="#FEFECE" filter="url(#f1qn5pmj6svclo)" height="48" id="char20" style="stroke: #A80036; stroke-width: 1.5;" width="86" x="662" y="468"/><ellipse cx="677" cy="484" fill="#ADD1B2" rx="11" ry="11" style="stroke: #A80036; stroke-width: 1.0;"/><path d="M679.9688,489.6406 Q679.3906,489.9375 678.75,490.0781 Q678.1094,490.2344 677.4063,490.2344 Q674.9063,490.2344 673.5781,488.5938 Q672.2656,486.9375 672.2656,483.8125 Q672.2656,480.6875 673.5781,479.0313 Q674.9063,477.375 677.4063,477.375 Q678.1094,477.375 678.75,477.5313 Q679.4063,477.6875 679.9688,477.9844 L679.9688,480.7031 Q679.3438,480.125 678.75,479.8594 Q678.1563,479.5781 677.5313,479.5781 Q676.1875,479.5781 675.5,480.6563 Q674.8125,481.7188 674.8125,483.8125 Q674.8125,485.9063 675.5,486.9844 Q676.1875,488.0469 677.5313,488.0469 Q678.1563,488.0469 678.75,487.7813 Q679.3438,487.5 679.9688,486.9219 L679.9688,489.6406 Z "/><text fill="#000000" font-family="sans-serif" font-size="12" lengthAdjust="spacingAndGlyphs" textLength="54" x="691" y="488.1543">char[20]</text><line style="stroke: #A80036; stroke-width: 1.5;" x1="663" x2="747" y1="500" y2="500"/><line style="stroke: #A80036; stroke-width: 1.5;" x1="663" x2="747" y1="508" y2="508"/><!--MD5=[7cb0288c84a1b86723f24458faac24ec]
class ProductType--><rect fill="#FEFECE" filter="url(#f1qn5pmj6svclo)" height="48" id="ProductType" style="stroke: #A80036; stroke-width: 1.5;" width="110" x="790" y="359"/><ellipse cx="805" cy="375" fill="#ADD1B2" rx="11" ry="11" style="stroke: #A80036; stroke-width: 1.0;"/><path d="M807.9688,380.6406 Q807.3906,380.9375 806.75,381.0781 Q806.1094,381.2344 805.4063,381.2344 Q802.9063,381.2344 801.5781,379.5938 Q800.2656,377.9375 800.2656,374.8125 Q800.2656,371.6875 801.5781,370.0313 Q802.9063,368.375 805.4063,368.375 Q806.1094,368.375 806.75,368.5313 Q807.4063,368.6875 807.9688,368.9844 L807.9688,371.7031 Q807.3438,371.125 806.75,370.8594 Q806.1563,370.5781 805.5313,370.5781 Q804.1875,370.5781 803.5,371.6563 Q802.8125,372.7188 802.8125,374.8125 Q802.8125,376.9063 803.5,377.9844 Q804.1875,379.0469 805.5313,379.0469 Q806.1563,379.0469 806.75,378.7813 Q807.3438,378.5 807.9688,377.9219 L807.9688,380.6406 Z "/><text fill="#000000" font-family="sans-serif" font-size="12" lengthAdjust="spacingAndGlyphs" textLength="78" x="819" y="379.1543">ProductType</text><line style="stroke: #A80036; stroke-width: 1.5;" x1="791" x2="899" y1="391" y2="391"/><line style="stroke: #A80036; stroke-width: 1.5;" x1="791" x2="899" y1="399" y2="399"/><!--MD5=[22ab39d24d7196bde7818713e4a74ba3]
class ProductSubType--><rect fill="#FEFECE" filter="url(#f1qn5pmj6svclo)" height="48" id="ProductSubType" style="stroke: #A80036; stroke-width: 1.5;" width="134" x="492" y="359"/><ellipse cx="507" cy="375" fill="#ADD1B2" rx="11" ry="11" style="stroke: #A80036; stroke-width: 1.0;"/><path d="M509.9688,380.6406 Q509.3906,380.9375 508.75,381.0781 Q508.1094,381.2344 507.4063,381.2344 Q504.9063,381.2344 503.5781,379.5938 Q502.2656,377.9375 502.2656,374.8125 Q502.2656,371.6875 503.5781,370.0313 Q504.9063,368.375 507.4063,368.375 Q508.1094,368.375 508.75,368.5313 Q509.4063,368.6875 509.9688,368.9844 L509.9688,371.7031 Q509.3438,371.125 508.75,370.8594 Q508.1563,370.5781 507.5313,370.5781 Q506.1875,370.5781 505.5,371.6563 Q504.8125,372.7188 504.8125,374.8125 Q504.8125,376.9063 505.5,377.9844 Q506.1875,379.0469 507.5313,379.0469 Q508.1563,379.0469 508.75,378.7813 Q509.3438,378.5 509.9688,377.9219 L509.9688,380.6406 Z "/><text fill="#000000" font-family="sans-serif" font-size="12" lengthAdjust="spacingAndGlyphs" textLength="102" x="521" y="379.1543">ProductSubType</text><line style="stroke: #A80036; stroke-width: 1.5;" x1="493" x2="625" y1="391" y2="391"/><line style="stroke: #A80036; stroke-width: 1.5;" x1="493" x2="625" y1="399" y2="399"/><!--MD5=[4687303e4a020900352916a83efd4817]
class UniqueId--><rect fill="#FEFECE" filter="url(#f1qn5pmj6svclo)" height="48" id="UniqueId" style="stroke: #A80036; stroke-width: 1.5;" width="87" x="661.5" y="359"/><ellipse cx="676.5" cy="375" fill="#ADD1B2" rx="11" ry="11" style="stroke: #A80036; stroke-width: 1.0;"/><path d="M679.4688,380.6406 Q678.8906,380.9375 678.25,381.0781 Q677.6094,381.2344 676.9063,381.2344 Q674.4063,381.2344 673.0781,379.5938 Q671.7656,377.9375 671.7656,374.8125 Q671.7656,371.6875 673.0781,370.0313 Q674.4063,368.375 676.9063,368.375 Q677.6094,368.375 678.25,368.5313 Q678.9063,368.6875 679.4688,368.9844 L679.4688,371.7031 Q678.8438,371.125 678.25,370.8594 Q677.6563,370.5781 677.0313,370.5781 Q675.6875,370.5781 675,371.6563 Q674.3125,372.7188 674.3125,374.8125 Q674.3125,376.9063 675,377.9844 Q675.6875,379.0469 677.0313,379.0469 Q677.6563,379.0469 678.25,378.7813 Q678.8438,378.5 679.4688,377.9219 L679.4688,380.6406 Z "/><text fill="#000000" font-family="sans-serif" font-size="12" lengthAdjust="spacingAndGlyphs" textLength="55" x="690.5" y="379.1543">UniqueId</text><line style="stroke: #A80036; stroke-width: 1.5;" x1="662.5" x2="747.5" y1="391" y2="391"/><line style="stroke: #A80036; stroke-width: 1.5;" x1="662.5" x2="747.5" y1="399" y2="399"/><!--MD5=[2ec478639462d171230d7bee6ac3d8ea]
class BarcodeValue--><rect codeLine="37" fill="#FEFECE" filter="url(#f1qn5pmj6svclo)" height="86.4141" id="BarcodeValue" style="stroke: #A80036; stroke-width: 1.5;" width="154" x="565" y="196"/><ellipse cx="595.75" cy="212" fill="#ADD1B2" rx="11" ry="11" style="stroke: #A80036; stroke-width: 1.0;"/><path d="M598.7188,217.6406 Q598.1406,217.9375 597.5,218.0781 Q596.8594,218.2344 596.1563,218.2344 Q593.6563,218.2344 592.3281,216.5938 Q591.0156,214.9375 591.0156,211.8125 Q591.0156,208.6875 592.3281,207.0313 Q593.6563,205.375 596.1563,205.375 Q596.8594,205.375 597.5,205.5313 Q598.1563,205.6875 598.7188,205.9844 L598.7188,208.7031 Q598.0938,208.125 597.5,207.8594 Q596.9063,207.5781 596.2813,207.5781 Q594.9375,207.5781 594.25,208.6563 Q593.5625,209.7188 593.5625,211.8125 Q593.5625,213.9063 594.25,214.9844 Q594.9375,216.0469 596.2813,216.0469 Q596.9063,216.0469 597.5,215.7813 Q598.0938,215.5 598.7188,214.9219 L598.7188,217.6406 Z "/><text fill="#000000" font-family="sans-serif" font-size="12" lengthAdjust="spacingAndGlyphs" textLength="87" x="613.25" y="216.1543">BarcodeValue</text><line style="stroke: #A80036; stroke-width: 1.5;" x1="566" x2="718" y1="228" y2="228"/><text fill="#000000" font-family="sans-serif" font-size="11" lengthAdjust="spacingAndGlyphs" textLength="101" x="571" y="242.2104">ProductType Type</text><text fill="#000000" font-family="sans-serif" font-size="11" lengthAdjust="spacingAndGlyphs" textLength="142" x="571" y="255.0151">ProductSubType Subtype</text><text fill="#000000" font-family="sans-serif" font-size="11" lengthAdjust="spacingAndGlyphs" textLength="63" x="571" y="267.8198">UniqueId Id</text><line style="stroke: #A80036; stroke-width: 1.5;" x1="566" x2="718" y1="274.4141" y2="274.4141"/><!--MD5=[112a80c0b29926b21c2c69743f7c09e0]
reverse link ProductType to char4--><path codeLine="33" d="M845,427.5974 C845,441.3785 845,456.0337 845,467.877 " fill="none" id="ProductType-backto-char4" style="stroke: #A80036; stroke-width: 1.0;"/><polygon fill="none" points="838.0001,427.1907,845,407.1906,852.0001,427.1906,838.0001,427.1907" style="stroke: #A80036; stroke-width: 1.0;"/><!--MD5=[6b0d53278925f77be304135c8170e99b]
reverse link ProductSubType to char6--><path codeLine="34" d="M559,427.5974 C559,441.3785 559,456.0337 559,467.877 " fill="none" id="ProductSubType-backto-char6" style="stroke: #A80036; stroke-width: 1.0;"/><polygon fill="none" points="552.0001,427.1907,559,407.1906,566.0001,427.1906,552.0001,427.1907" style="stroke: #A80036; stroke-width: 1.0;"/><!--MD5=[8d6543b5890c3d6e45995fbe42792881]
reverse link UniqueId to char20--><path codeLine="35" d="M705,427.5974 C705,441.3785 705,456.0337 705,467.877 " fill="none" id="UniqueId-backto-char20" style="stroke: #A80036; stroke-width: 1.0;"/><polygon fill="none" points="698.0001,427.1907,705,407.1906,712.0001,427.1906,698.0001,427.1907" style="stroke: #A80036; stroke-width: 1.0;"/><!--MD5=[e4570c0606611bf1dc7c9a037391ac9e]
reverse link BarcodeValue to ProductType--><path codeLine="43" d="M713.6411,289.8193 C746.6962,313.2673 784.3892,340.0052 810.895,358.8073 " fill="none" id="BarcodeValue-backto-ProductType" style="stroke: #A80036; stroke-width: 1.0;"/><polygon fill="#A80036" points="702.6317,282.0097,705.2111,288.7437,712.4192,288.9527,709.8398,282.2187,702.6317,282.0097" style="stroke: #A80036; stroke-width: 1.0;"/><text fill="#000000" font-family="sans-serif" font-size="13" lengthAdjust="spacingAndGlyphs" textLength="23" x="768" y="325.0669">has</text><!--MD5=[f00450457947458fbbab375ead200cb4]
reverse link BarcodeValue to ProductSubType--><path codeLine="44" d="M610.4928,293.6632 C597.5684,316.0861 583.2693,340.8942 573.0255,358.6665 " fill="none" id="BarcodeValue-backto-ProductSubType" style="stroke: #A80036; stroke-width: 1.0;"/><polygon fill="#A80036" points="617.0973,282.2047,610.6355,285.4055,611.1047,292.6013,617.5665,289.4005,617.0973,282.2047" style="stroke: #A80036; stroke-width: 1.0;"/><text fill="#000000" font-family="sans-serif" font-size="13" lengthAdjust="spacingAndGlyphs" textLength="23" x="600" y="325.0669">has</text><!--MD5=[5935fb1481616f24c150c3c948a492c7]
reverse link BarcodeValue to UniqueId--><path codeLine="45" d="M666.1854,294.2809 C675.9241,316.5407 686.6501,341.0573 694.3541,358.6665 " fill="none" id="BarcodeValue-backto-UniqueId" style="stroke: #A80036; stroke-width: 1.0;"/><polygon fill="#A80036" points="660.9021,282.2047,659.6424,289.3049,665.7119,293.1986,666.9716,286.0984,660.9021,282.2047" style="stroke: #A80036; stroke-width: 1.0;"/><text fill="#000000" font-family="sans-serif" font-size="13" lengthAdjust="spacingAndGlyphs" textLength="23" x="682" y="325.0669">has</text><!--MD5=[a87f2186e319fb0b387b1aebf3b03873]
reverse link ProductKeys to ProductType--><path codeLine="47" d="M857.3879,289.1126 C854.2775,312.686 850.7107,339.7186 848.2056,358.7047 " fill="none" id="ProductKeys-backto-ProductType" style="stroke: #A80036; stroke-width: 1.0;"/><polygon fill="#A80036" points="859.107,276.0836,854.3565,281.5088,857.5372,287.9805,862.2877,282.5553,859.107,276.0836" style="stroke: #A80036; stroke-width: 1.0;"/><text fill="#000000" font-family="sans-serif" font-size="13" lengthAdjust="spacingAndGlyphs" textLength="63" x="854" y="325.0669">has many</text><!--MD5=[84e03a7594d8772ae95a0ef04d630b96]
reverse link PurchaseEntity to BarcodeValue--><path codeLine="49" d="M478.455,239 C506.7264,239 537.574,239 564.7833,239 " fill="none" id="PurchaseEntity-backto-BarcodeValue" style="stroke: #A80036; stroke-width: 1.0;"/><polygon fill="#A80036" points="465.2414,239,471.2414,243,477.2414,239,471.2414,235,465.2414,239" style="stroke: #A80036; stroke-width: 1.0;"/><text fill="#000000" font-family="sans-serif" font-size="13" lengthAdjust="spacingAndGlyphs" textLength="63" x="483.5" y="232.0669">has many</text><!--MD5=[1cf9afa4dd37f77dbb4d68c3c1c6e1ec]
reverse link PurchaseAggregate to PurchaseEntity--><path codeLine="51" d="M387,132.2821 C387,153.7398 387,176.7542 387,195.8972 " fill="none" id="PurchaseAggregate-backto-PurchaseEntity" style="stroke: #A80036; stroke-width: 1.0;"/><polygon fill="#A80036" points="387,119.1714,383,125.1714,387,131.1714,391,125.1714,387,119.1714" style="stroke: #A80036; stroke-width: 1.0;"/><text fill="#000000" font-family="sans-serif" font-size="13" lengthAdjust="spacingAndGlyphs" textLength="63" x="388" y="162.0669">has many</text><!--MD5=[3136bdbb4f44b017302aef93d9d650ad]
@startuml
'01232020Jamie
'BEVGTTKYGDGJHGTFBNGDVZJGDIPXVS
'CANFDNSKAVOUXSCGSYBHQYHNMDQOBL
'FRZNQQNPSESCHIMIXOUHNAWLXRZEPT
'BEVGZYUFGNIHDCZIPWLZJLPDSGNEAH

class ProductKeys {
    ProductType[] Keys
    - -
    +AddKey(ProductType productType)
}

class PurchaseEntity {
    char[8] Timestamp
    string Customer
    BarcodeValue[] Barcodes
}
note left: Timestamp is in the format MMDDYYYY

class PurchaseAggregate {
    PurchaseEntity[] Purchases
    - -
    +string GetSummary()
    +UniqueId[] GetUniqueIds()
    +BarcodeValue GetMostCommonProductType()
    +ProductSubType[] GetProductSubTypes(ProductType productType)
}

class "char[4]" as char4
class "char[6]" as char6
class "char[20]" as char20

ProductType <|- - char4
ProductSubType <|- - char6
UniqueId <|- - char20

class BarcodeValue {
    ProductType Type
    ProductSubType Subtype
    UniqueId Id
}

BarcodeValue *- - ProductType : has
BarcodeValue *- - ProductSubType : has
BarcodeValue *- - UniqueId : has

ProductKeys *- - ProductType : has many

PurchaseEntity *- BarcodeValue : has many

PurchaseAggregate *- - PurchaseEntity : has many
@enduml

@startuml

class ProductKeys {
    ProductType[] Keys
    - -
    +AddKey(ProductType productType)
}

class PurchaseEntity {
    char[8] Timestamp
    string Customer
    BarcodeValue[] Barcodes
}
note left: Timestamp is in the format MMDDYYYY

class PurchaseAggregate {
    PurchaseEntity[] Purchases
    - -
    +string GetSummary()
    +UniqueId[] GetUniqueIds()
    +BarcodeValue GetMostCommonProductType()
    +ProductSubType[] GetProductSubTypes(ProductType productType)
}

class "char[4]" as char4
class "char[6]" as char6
class "char[20]" as char20

ProductType <|- - char4
ProductSubType <|- - char6
UniqueId <|- - char20

class BarcodeValue {
    ProductType Type
    ProductSubType Subtype
    UniqueId Id
}

BarcodeValue *- - ProductType : has
BarcodeValue *- - ProductSubType : has
BarcodeValue *- - UniqueId : has

ProductKeys *- - ProductType : has many

PurchaseEntity *- BarcodeValue : has many

PurchaseAggregate *- - PurchaseEntity : has many
@enduml

PlantUML version 1.2020.16(Sun Aug 23 20:20:43 UTC 2020)
(GPL source distribution)
Java Runtime: OpenJDK Runtime Environment
JVM: OpenJDK 64-Bit Server VM
Default Encoding: UTF-8
Language: en
Country: null
--></g></svg>